<?xml version="1.0" encoding="UTF-8"?>
<svg xmlns="http://www.w3.org/2000/svg" xmlns:xlink="http://www.w3.org/1999/xlink" width="415px" height="100px" viewBox="0 0 415 100" version="1.1">
  <!-- Generator: Sketch 63.1 (92452) - https://sketch.com -->
  <title>Group 6</title>
  <desc>Created with Sketch.</desc>
  <defs>
    <linearGradient x1="21.7896627%" y1="1.63823387%" x2="75.3255208%" y2="114.078776%" id="linearGradient-1">
      <stop stop-color="#4FE4FF" offset="0%"></stop>
      <stop stop-color="#8549FF" offset="100%"></stop>
    </linearGradient>
  </defs>
  <g id="Page-1" stroke="none" stroke-width="1" fill="none" fill-rule="evenodd">
    <g id="Artboard" transform="translate(-1166.000000, -156.000000)">
      <g id="Group-6" transform="translate(1166.000000, 156.000000)">
        <g id="Group-4" transform="translate(132.536250, 6.479550)">
          <g id="Brizy-Logo-(light-bg)" transform="translate(0.000000, 24.151050)" fill="#181C25" fill-rule="nonzero">
            <path d="M123.120053,13.8167303 C121.66694,13.2504851 119.960054,13.9431399 119.391671,15.3873249 L111.177062,35.1712765 L103.026767,15.5760733 C102.395809,14.0054787 100.940958,13.3145556 99.3626967,13.7526598 C97.8470081,14.1942271 96.572928,16.0141775 97.0787357,17.4600942 L108.018801,42.3939329 L103.343114,53.8244679 C102.774731,55.2686534 103.343114,56.9015866 104.733653,57.5301707 C106.251079,58.0946848 107.891915,57.4054929 108.460296,55.9595757 L124.63574,17.5224332 C125.266697,16.078248 124.63574,14.3812439 123.120053,13.8167303 Z M90.2511904,13.9431399 L70.6654489,13.9431399 C69.1480243,13.9431399 67.8861096,15.1362376 67.8861096,16.7051006 C67.8861096,18.2133563 69.1480243,19.4064541 70.6654489,19.4064541 L84.7550842,19.4064541 L68.2632937,37.3704542 C67.3177267,38.4371429 66.8744927,39.3168142 66.8744927,40.4475729 L66.8744927,40.5722506 C66.8744927,42.0805074 68.2632937,43.2753361 70.0953287,43.2753361 L90.6944243,43.2753361 C92.2101116,43.2753361 93.4720249,42.0805074 93.4720249,40.5722506 C93.4720249,39.0033888 92.2101116,37.8085588 90.6944243,37.8085588 L75.2785618,37.8085588 L92.0849626,19.8462898 C93.0305297,18.7796015 93.4720249,17.8981983 93.4720249,16.7691711 L93.4720249,16.6427617 C93.4720249,15.1362376 92.0849626,13.9431399 90.2511904,13.9431399 Z M59.6680245,13.6279819 C58.0880248,13.6279819 56.8243727,14.9474892 56.8243727,16.5163522 L56.8243727,40.6969283 C56.8243727,42.2675233 58.0880248,43.5852993 59.6680245,43.5852993 C61.3105994,43.5852993 62.5742515,42.2675233 62.5742515,40.6969283 L62.5742515,16.5163522 C62.5742515,14.9474892 61.3105994,13.6279819 59.6680245,13.6279819 Z M48.8809191,13.3145556 C45.0256505,13.3145556 42.183736,15.3873249 40.66631,20.5372128 L40.66631,16.5163522 C40.66631,14.9474892 39.402658,13.6279819 37.7600845,13.6279819 C36.1800847,13.6279819 34.9164327,14.9474892 34.9164327,16.5163522 L34.9164327,40.6969283 C34.9164327,42.2675233 36.1800847,43.5852993 37.7600845,43.5852993 C39.402658,43.5852993 40.66631,42.2675233 40.66631,40.6969283 L40.66631,32.5963324 C40.66631,24.8074287 43.0667279,18.7796015 48.7540328,18.7796015 C49.1329543,18.7796015 49.6387634,18.7796015 50.0802586,18.8402089 C52.1034923,19.0289573 53.7443285,18.653192 54.0624149,16.8315101 C54.5664853,13.7526598 51.027563,13.3145556 48.8809191,13.3145556 Z M17.5642451,37.8085588 L5.93933877,37.8085588 L5.93933877,23.112157 L17.3765224,23.112157 C21.7984352,23.112157 24.5152008,27.2576951 24.5152008,30.7105788 C24.5152008,34.3539433 21.8610104,37.8085588 17.5642451,37.8085588 Z M5.93933877,5.40097534 L15.7965227,5.40097534 C19.7126278,5.40097534 22.2399319,7.59842249 22.2399319,11.3664642 C22.2399319,14.8834186 20.2810107,17.9622689 16.4274794,17.9622689 L5.93933877,17.9622689 L5.93933877,5.40097534 Z M22.7457396,20.2237866 C26.8530448,18.653192 28.2435831,14.8210797 28.2435831,11.1794475 C28.2435831,4.33255543 23.6930453,0 16.4274794,0 L2.46473031,0 C1.13850311,0 0,1.12902724 0,2.5126051 L0,40.7627315 C0,42.1411138 1.13850311,43.2753361 2.46473031,43.2753361 L17.8180177,43.2753361 C25.841428,43.2753361 30.5814272,37.495132 30.5814272,30.7746501 C30.5814272,26.4420951 27.6108877,21.2281359 22.7457396,20.2237866 Z" id="Brizy"></path>
          </g>
          <text id="Cloud" font-family="Europa-Regular, Europa" font-size="64.7955" font-weight="normal" letter-spacing="-1.90575066" fill="#A7B2DD">
            <tspan x="130.7691" y="67">Cloud</tspan>
          </text>
        </g>
        <g id="Group-5">
          <path d="M0,45 L53,13 L106,45 L53,77 L0,45 Z M19.0256411,45.7619048 L53,66.3333333 L86.9743589,45.7619048 L53,25.1904762 L19.0256411,45.7619048 Z" id="Top-element" fill="#181C25" fill-rule="nonzero"></path>
          <polygon id="Bottom-el" fill="#A7B2DD" points="0 67.7725609 9.49333038 62 53 88.425259 96.7887292 62.1715104 106 67.7725609 53 100"></polygon>
          <circle id="Oval" fill="url(#linearGradient-1)" fill-rule="nonzero" cx="78.5" cy="21.5" r="21.5"></circle>
          <path d="M86.2625,20.6181818 C85.6875,16.8363636 82.38125,14 78.5,14 C75.121875,14 72.175,16.1090909 71.096875,19.2363636 C68.653125,19.8909091 67,22 67,24.5454545 C67,27.3818182 69.15625,29.7818182 72.03125,30 L85.6875,30 C85.6875,30 85.759375,30 85.759375,30 C88.13125,29.7818182 90,27.6727273 90,25.2727273 C90,23.0181818 88.41875,21.1272727 86.2625,20.6181818 Z" id="Path" fill="#FFFFFF"></path>
        </g>
      </g>
    </g>
  </g>
</svg>
