<?xml version="1.0" encoding="UTF-8"?>
<svg xmlns="http://www.w3.org/2000/svg" xmlns:xlink="http://www.w3.org/1999/xlink" width="550px" height="100px" viewBox="0 0 550 100" version="1.1">
  <!-- Generator: Sketch 63.1 (92452) - https://sketch.com -->
  <title>Group 6</title>
  <desc>Created with Sketch.</desc>
  <g id="Page-1" stroke="none" stroke-width="1" fill="none" fill-rule="evenodd">
    <g id="Artboard" transform="translate(-1225.000000, -336.000000)">
      <g id="Group-6" transform="translate(1166.000000, 336.000000)">
        <g id="Group-7" transform="translate(59.000000, 1.000000)">
          <g id="Group-4" transform="translate(132.536250, 5.479550)">
            <g id="Brizy-Logo-(light-bg)" transform="translate(0.000000, 24.151050)" fill="#181C25" fill-rule="nonzero">
              <path d="M123.120053,13.8167303 C121.66694,13.2504851 119.960054,13.9431399 119.391671,15.3873249 L111.177062,35.1712765 L103.026767,15.5760733 C102.395809,14.0054787 100.940958,13.3145556 99.3626967,13.7526598 C97.8470081,14.1942271 96.572928,16.0141775 97.0787357,17.4600942 L108.018801,42.3939329 L103.343114,53.8244679 C102.774731,55.2686534 103.343114,56.9015866 104.733653,57.5301707 C106.251079,58.0946848 107.891915,57.4054929 108.460296,55.9595757 L124.63574,17.5224332 C125.266697,16.078248 124.63574,14.3812439 123.120053,13.8167303 Z M90.2511904,13.9431399 L70.6654489,13.9431399 C69.1480243,13.9431399 67.8861096,15.1362376 67.8861096,16.7051006 C67.8861096,18.2133563 69.1480243,19.4064541 70.6654489,19.4064541 L84.7550842,19.4064541 L68.2632937,37.3704542 C67.3177267,38.4371429 66.8744927,39.3168142 66.8744927,40.4475729 L66.8744927,40.5722506 C66.8744927,42.0805074 68.2632937,43.2753361 70.0953287,43.2753361 L90.6944243,43.2753361 C92.2101116,43.2753361 93.4720249,42.0805074 93.4720249,40.5722506 C93.4720249,39.0033888 92.2101116,37.8085588 90.6944243,37.8085588 L75.2785618,37.8085588 L92.0849626,19.8462898 C93.0305297,18.7796015 93.4720249,17.8981983 93.4720249,16.7691711 L93.4720249,16.6427617 C93.4720249,15.1362376 92.0849626,13.9431399 90.2511904,13.9431399 Z M59.6680245,13.6279819 C58.0880248,13.6279819 56.8243727,14.9474892 56.8243727,16.5163522 L56.8243727,40.6969283 C56.8243727,42.2675233 58.0880248,43.5852993 59.6680245,43.5852993 C61.3105994,43.5852993 62.5742515,42.2675233 62.5742515,40.6969283 L62.5742515,16.5163522 C62.5742515,14.9474892 61.3105994,13.6279819 59.6680245,13.6279819 Z M48.8809191,13.3145556 C45.0256505,13.3145556 42.183736,15.3873249 40.66631,20.5372128 L40.66631,16.5163522 C40.66631,14.9474892 39.402658,13.6279819 37.7600845,13.6279819 C36.1800847,13.6279819 34.9164327,14.9474892 34.9164327,16.5163522 L34.9164327,40.6969283 C34.9164327,42.2675233 36.1800847,43.5852993 37.7600845,43.5852993 C39.402658,43.5852993 40.66631,42.2675233 40.66631,40.6969283 L40.66631,32.5963324 C40.66631,24.8074287 43.0667279,18.7796015 48.7540328,18.7796015 C49.1329543,18.7796015 49.6387634,18.7796015 50.0802586,18.8402089 C52.1034923,19.0289573 53.7443285,18.653192 54.0624149,16.8315101 C54.5664853,13.7526598 51.027563,13.3145556 48.8809191,13.3145556 Z M17.5642451,37.8085588 L5.93933877,37.8085588 L5.93933877,23.112157 L17.3765224,23.112157 C21.7984352,23.112157 24.5152008,27.2576951 24.5152008,30.7105788 C24.5152008,34.3539433 21.8610104,37.8085588 17.5642451,37.8085588 Z M5.93933877,5.40097534 L15.7965227,5.40097534 C19.7126278,5.40097534 22.2399319,7.59842249 22.2399319,11.3664642 C22.2399319,14.8834186 20.2810107,17.9622689 16.4274794,17.9622689 L5.93933877,17.9622689 L5.93933877,5.40097534 Z M22.7457396,20.2237866 C26.8530448,18.653192 28.2435831,14.8210797 28.2435831,11.1794475 C28.2435831,4.33255543 23.6930453,0 16.4274794,0 L2.46473031,0 C1.13850311,0 0,1.12902724 0,2.5126051 L0,40.7627315 C0,42.1411138 1.13850311,43.2753361 2.46473031,43.2753361 L17.8180177,43.2753361 C25.841428,43.2753361 30.5814272,37.495132 30.5814272,30.7746501 C30.5814272,26.4420951 27.6108877,21.2281359 22.7457396,20.2237866 Z" id="Brizy"></path>
            </g>
            <text id="WordPress" font-family="Europa-Regular, Europa" font-size="64.7955" font-weight="normal" letter-spacing="-1.90575066" fill="#A7B2DD">
              <tspan x="130.7691" y="67">WordPress</tspan>
            </text>
          </g>
          <g id="Group-5" transform="translate(0.000000, 12.000000)">
            <path d="M0,32 L53,0 L106,32 L53,64 L0,32 Z M19.0256411,32.7619048 L53,53.3333333 L86.9743589,32.7619048 L53,12.1904762 L19.0256411,32.7619048 Z" id="Top-element" fill="#181C25" fill-rule="nonzero"></path>
            <polygon id="Bottom-el" fill="#A7B2DD" points="0 54.7725609 9.49333038 49 53 75.425259 96.7887292 49.1715104 106 54.7725609 53 87"></polygon>
          </g>
          <g id="Group" transform="translate(58.000000, 0.000000)">
            <circle id="Oval" fill="#FFFFFF" fill-rule="nonzero" cx="20.8954605" cy="20.8954605" r="19.0575"></circle>
            <path d="M13.5205921,35.6451974 L6.23823411,13.5205921 C5.39116717,15.6259056 4.91657895,17.9558285 4.91657895,20.4096573 C4.91657895,27.1106522 8.42831085,32.9007575 13.5205921,35.6451974 Z" id="Fill-1" fill="#2388B6"></path>
            <path d="M31.9541006,20.8217202 C31.9541006,18.751475 31.2317957,17.317783 30.6119764,16.2018961 C29.7875781,14.8220694 29.0146517,13.6535292 29.0146517,12.2737024 C29.0146517,10.7338284 30.148796,9.30047301 31.7465132,9.30047301 C31.8187175,9.30047301 31.8869977,9.30983211 31.9577632,9.313872 C29.0623955,6.58370971 25.2057422,4.91657895 20.9697545,4.91657895 C15.2852327,4.91657895 10.284363,7.91909762 7.37486842,12.4670115 C7.75681889,12.4787945 8.11692493,12.486605 8.42196209,12.486605 C10.1238,12.486605 12.7586042,12.2740391 12.7586042,12.2740391 C13.6357168,12.2207798 13.7391181,13.5471452 12.8632482,13.6538659 C12.8632482,13.6538659 11.9813611,13.7606538 11.0005202,13.8135764 L16.9259847,31.9577632 L20.4870188,20.9633186 L17.9513647,13.8132398 C17.0751677,13.7602498 16.2451449,13.6535292 16.2451449,13.6535292 C15.3683593,13.6006065 15.4711066,12.2204431 16.3479576,12.2737024 C16.3479576,12.2737024 19.034953,12.4862683 20.6337819,12.4862683 C22.3354236,12.4862683 24.9700316,12.2737024 24.9700316,12.2737024 C25.8477983,12.2204431 25.9508726,13.5467413 25.074414,13.6535292 C25.074414,13.6535292 24.1912189,13.7602498 23.2122092,13.8132398 L29.0922844,31.8201373 L30.7147237,26.2368652 C31.4186505,23.9197824 31.9541006,22.2556816 31.9541006,20.8217202" id="Fill-2" fill="#2388B6"></path>
            <path d="M20.7794389,22.1246053 L15.9788816,36.2153897 C17.412238,36.6416331 18.92798,36.8743421 20.4987102,36.8743421 C22.3620027,36.8743421 24.1488264,36.5484715 25.8120395,35.9579935 C25.7685635,35.8889994 25.7296538,35.8154576 25.6981402,35.7354842 L20.7794389,22.1246053" id="Fill-3" fill="#2388B6"></path>
            <path d="M34.7547234,12.2914474 C34.8290033,12.8448319 34.8711508,13.4394899 34.8711508,14.078075 C34.8711508,15.8411676 34.5432206,17.823128 33.5554655,20.3012767 L28.2703289,35.6451974 C33.4144172,32.6330786 36.8743421,27.0371484 36.8743421,20.6270641 C36.8745507,17.6068443 36.1060881,14.7663837 34.7547234,12.2914474" id="Fill-4" fill="#2388B6"></path>
            <path d="M20.895958,40.5617763 C10.0521991,40.5617763 1.22914474,31.7389598 1.22914474,20.8944655 C1.22914474,10.0511794 10.0515594,1.22914474 20.895958,1.22914474 C31.739646,1.22914474 40.5617763,10.0511084 40.5617763,20.8944655 C40.5617763,31.7391019 31.7393617,40.5617763 20.895958,40.5617763 Z M20.8949201,-4.47641924e-15 C9.37358777,-4.47641924e-15 -2.23820962e-14,9.37346118 -2.23820962e-14,20.8946319 C-2.23820962e-14,32.4174599 9.37322752,41.7909211 20.8949201,41.7909211 C32.4158202,41.7909211 41.7909211,32.4177481 41.7909211,20.8946319 C41.7909211,9.37338912 32.4158202,-4.47641924e-15 20.8949201,-4.47641924e-15 L20.8949201,-4.47641924e-15 Z" id="Fill-6" stroke="#2388B6" stroke-width="1.23606004" fill="#2388B6"></path>
          </g>
        </g>
      </g>
    </g>
  </g>
</svg>
