<?xml version="1.0" encoding="UTF-8"?>
<svg xmlns="http://www.w3.org/2000/svg" xmlns:xlink="http://www.w3.org/1999/xlink" width="325px" height="136px" viewBox="0 0 325 136" version="1.1">
  <!-- Generator: Sketch 63.1 (92452) - https://sketch.com -->
  <title>Logo Marc Side</title>
  <desc>Created with Sketch.</desc>
  <g id="Logo-Marc-Side" stroke="none" stroke-width="1" fill="none" fill-rule="evenodd">
    <g id="Group-2" transform="translate(24.000000, 22.000000)">
      <g id="Group">
        <path d="M2.15345588e-14,35.3401446 L58.2129782,0 L116.425956,35.3401446 L58.2129782,70.6802892 L2.15345588e-14,35.3401446 Z M20.8969665,36.1815766 L58.2129782,58.900241 L95.5289899,36.1815766 L58.2129782,13.4629122 L20.8969665,36.1815766 Z" id="Top-element" fill="#181C25"></path>
        <polygon id="Bottom-el" fill="#A7B2DD" points="2.15345588e-14 60.8830619 10.4270761 54.552955 58.2129782 83.5305127 106.308683 54.7410309 116.425956 60.8830619 58.2129782 96.2232066"></polygon>
      </g>
      <g id="Group-3" transform="translate(135.000000, 11.000000)">
        <path d="M144.653908,16.4571568 C142.97559,15.7906143 141.004169,16.6059568 140.347697,18.305946 L130.859981,41.5941667 L121.446536,18.5281268 C120.717801,16.6793377 119.037475,15.8660335 117.214613,16.3817376 C115.464023,16.9015185 113.992483,19.043831 114.576683,20.7458585 L127.212249,50.0961508 L121.81192,63.5513408 C121.155448,65.2513299 121.81192,67.1734999 123.417966,67.9134232 C125.170563,68.5779274 127.065697,67.7666616 127.722169,66.0646341 L146.404498,20.8192393 C147.133241,19.1192502 146.404498,17.121661 144.653908,16.4571568 L144.653908,16.4571568 Z M105.902037,16.2249996 L83.3494412,16.2249996 C81.6021554,16.2249996 80.1490861,17.6109109 80.1490861,19.4333139 C80.1490861,21.185315 81.6021554,22.5712264 83.3494412,22.5712264 L99.5733802,22.5712264 L80.5834057,43.4383441 C79.4946045,44.6774172 78.9842289,45.6992502 78.9842289,47.0127482 L78.9842289,47.1575749 C78.9842289,48.909576 80.5834057,50.2974988 82.6929581,50.2974988 L106.412413,50.2974988 C108.157697,50.2974988 109.610767,48.909576 109.610767,47.1575749 C109.610767,45.3351719 108.157697,43.9472491 106.412413,43.9472491 L88.6613502,43.9472491 L108.013591,23.0821429 C109.102393,21.8430698 109.610767,20.8192253 109.610767,19.5077388 L109.610767,19.3609006 C109.610767,17.6109109 108.013591,16.2249996 105.902037,16.2249996 L105.902037,16.2249996 Z M70.8895295,16.2249996 C69.1177786,16.2249996 67.7007676,17.7972302 67.7007676,19.6665753 L67.7007676,48.4784231 C67.7007676,50.3498315 69.1177786,51.9199988 70.8895295,51.9199988 C72.7314488,51.9199988 74.1484598,50.3498315 74.1484598,48.4784231 L74.1484598,19.6665753 C74.1484598,17.7972302 72.7314488,16.2249996 70.8895295,16.2249996 L70.8895295,16.2249996 Z M56.7160652,16.2249996 C52.1834413,16.2249996 48.842215,18.6691913 47.0581841,24.7418946 L47.0581841,20.0005304 C47.0581841,18.1505407 45.5725134,16.5945892 43.6413459,16.5945892 C41.7837466,16.5945892 40.298076,18.1505407 40.298076,20.0005304 L40.298076,48.5140575 C40.298076,50.3660891 41.7837466,51.9199988 43.6413459,51.9199988 C45.5725134,51.9199988 47.0581841,50.3660891 47.0581841,48.5140575 L47.0581841,38.9619034 C47.0581841,29.7772969 49.8803453,22.6693345 56.5668851,22.6693345 C57.0123819,22.6693345 57.6070589,22.6693345 58.126124,22.740802 C60.5048319,22.9633725 62.4339559,22.5202735 62.807928,20.3721619 C63.4005614,16.7416082 59.2398661,16.2249996 56.7160652,16.2249996 L56.7160652,16.2249996 Z M6.44769215,44.4299989 L6.44769215,27.5824993 L20.3421761,27.5824993 C25.7141468,27.5824993 29.0146147,32.6168948 29.0146147,36.8101214 C29.0146147,41.2346694 25.7901653,44.4299989 20.5702315,44.4299989 L6.44769215,44.4299989 Z M6.44769215,6.48999985 L18.144705,6.48999985 C22.7917461,6.48999985 25.7907686,9.04453142 25.7907686,13.4248787 C25.7907686,17.5133371 23.4662168,21.0924995 18.8934293,21.0924995 L6.44769215,21.0924995 L6.44769215,6.48999985 Z M26.3760229,23.5054415 C31.1388643,21.6799911 32.751337,17.2260531 32.751337,12.9935038 C32.751337,5.03558649 27.47452,0 19.0493499,0 L2.85810794,0 C1.32021206,0 -2.27373675e-13,1.31223117 -2.27373675e-13,2.92031815 L-2.27373675e-13,47.3771807 C-2.27373675e-13,48.9792298 1.32021206,50.2974988 2.85810794,50.2974988 L20.6618226,50.2974988 C29.9657904,50.2974988 35.4623069,43.5793582 35.4623069,35.7683626 C35.4623069,30.7327761 32.0176619,24.6727637 26.3760229,23.5054415 L26.3760229,23.5054415 Z" id="Brizy" fill="#181C25"></path>
        <path d="M5.98400002,76 C8.97600002,76 11.2426667,73.5150273 11.2426667,69.9153005 C11.2426667,66.2691257 8.97600002,63.8306011 6.02933335,63.8306011 C4.19333334,63.8306011 2.69733334,64.852459 2.08533334,65.9439891 L2.04000001,65.9439891 C2.04000001,65.9439891 2.10800001,65.5956284 2.10800001,64.9918033 L2.10800001,59 L0,59 L0,75.7213115 L1.94933334,75.7213115 L1.99466667,74.3510929 C1.99466667,73.8401639 1.92666667,73.4918033 1.92666667,73.4918033 L1.97200001,73.4918033 C2.56133334,74.7923497 4.14800001,76 5.98400002,76 Z M5.68933335,74.1188525 C3.98933334,74.1188525 2.13066667,72.818306 2.13066667,69.9153005 C2.13066667,67.0122951 3.98933334,65.7117486 5.68933335,65.7117486 C7.79733335,65.7117486 9.20266669,67.4535519 9.20266669,69.9153005 C9.20266669,72.3306011 7.79733335,74.1188525 5.68933335,74.1188525 Z M17.152,76 C19.4866667,76 20.9373334,74.2581967 21.368,73.2131148 L21.4133334,73.2131148 C21.4133334,73.2595628 21.3226667,73.6079235 21.3226667,74.0956284 L21.368,75.7213115 L23.34,75.7213115 L23.34,64.1092896 L21.232,64.1092896 L21.232,69.8224044 C21.232,72.1912568 19.6906667,74.0027322 17.5373333,74.0027322 C15.656,74.0027322 15.384,72.5628415 15.384,70.9603825 L15.384,64.1092896 L13.276,64.1092896 L13.276,71.4016393 C13.276,74.3046448 14.364,76 17.152,76 Z M27.708,62.0423497 C28.4786667,62.0423497 29.0226667,61.5081967 29.0226667,60.7418033 C29.0226667,59.9521858 28.4786667,59.4180328 27.708,59.4180328 C26.9146667,59.4180328 26.3933333,59.9521858 26.3933333,60.7418033 C26.3933333,61.5081967 26.9146667,62.0423497 27.708,62.0423497 Z M28.7733333,75.7213115 L28.7733333,64.1092896 L26.6653333,64.1092896 L26.6653333,75.7213115 L28.7733333,75.7213115 Z M35,76 C35.816,76 36.3826667,75.8374317 36.5186667,75.7909836 L36.5186667,73.9330601 C36.3826667,73.9795082 35.9746667,74.0724044 35.5213333,74.0724044 C34.592,74.0724044 34.2066667,73.5614754 34.2066667,72.307377 L34.2066667,59 L32.0986667,59 L32.0986667,72.7486339 C32.0986667,75.0942623 33.3226667,76 35,76 Z M42.632,76 C44.468,76 46.0546667,74.7923497 46.644,73.4918033 L46.6893333,73.4918033 C46.6893333,73.4918033 46.6213333,73.8401639 46.6213333,74.3510929 L46.6666667,75.7213115 L48.616,75.7213115 L48.616,59 L46.508,59 L46.508,64.9918033 C46.508,65.5956284 46.576,65.9439891 46.576,65.9439891 L46.5306667,65.9439891 C45.9186667,64.852459 44.4226667,63.8306011 42.5866667,63.8306011 C39.64,63.8306011 37.3733333,66.2691257 37.3733333,69.9153005 C37.3733333,73.5150273 39.64,76 42.632,76 Z M42.9266667,74.1188525 C40.8186667,74.1188525 39.4133333,72.3306011 39.4133333,69.9153005 C39.4133333,67.4535519 40.8186667,65.7117486 42.9266667,65.7117486 C44.6266667,65.7117486 46.4853333,67.0122951 46.4853333,69.9153005 C46.4853333,72.818306 44.6266667,74.1188525 42.9266667,74.1188525 Z M57.0186667,76 C58.8546667,76 60.3733333,75.5122951 61.2573333,75.0013661 L61.2573333,73.0273224 C60.3053333,73.6543716 58.696,74.1188525 57.1546667,74.1188525 C54.7746667,74.1188525 53.2786667,72.6789617 53.2106667,70.4030055 L53.2106667,70.3797814 L61.6426667,70.3797814 C61.6426667,70.147541 61.688,69.7062842 61.688,69.2418033 C61.688,66.3852459 59.8973333,63.8306011 56.5653333,63.8306011 C53.4373333,63.8306011 51.012,66.4084699 51.012,69.9153005 C51.012,73.5150273 53.4373333,76 57.0186667,76 Z M59.6026667,68.8469945 L53.2333333,68.8469945 C53.4146667,67.1748634 54.5933333,65.6420765 56.5426667,65.6420765 C58.56,65.6420765 59.6253333,67.1748634 59.6026667,68.8469945 Z M65.9426667,75.7213115 L65.9426667,70.6584699 C65.9426667,68.4057377 67.212,65.920765 69.4106667,65.920765 C69.7053333,65.920765 69.9093333,65.9672131 70,65.9904372 L70,63.9002732 C69.9093333,63.8770492 69.6373333,63.8306011 69.32,63.8306011 C67.688,63.8306011 66.4866667,64.9453552 65.8293333,66.5942623 L65.8066667,66.5942623 C65.784,66.5245902 65.852,66.1762295 65.8293333,65.7349727 L65.8066667,64.1092896 L63.8346666,64.1092896 L63.8346666,75.7213115 L65.9426667,75.7213115 Z" id="builder" fill="#A7B2DD" fill-rule="nonzero"></path>
      </g>
    </g>
  </g>
</svg>
