<?xml version="1.0" encoding="UTF-8"?>
<svg width="29px" height="29px" viewBox="0 0 29 29" version="1.1" xmlns="http://www.w3.org/2000/svg" xmlns:xlink="http://www.w3.org/1999/xlink">
    <!-- Generator: Sketch 52.5 (67469) - http://www.bohemiancoding.com/sketch -->
    <title>Badge Price</title>
    <desc>Created with Sketch.</desc>
    <g id="Pagini-Site" stroke="none" stroke-width="1" fill="none" fill-rule="evenodd">
        <g id="DESIGN" transform="translate(-1048.000000, -7018.000000)">
            <g id="Texte-FREE-vs-PRo" transform="translate(369.000000, 6929.000000)">
                <g id="PRO" transform="translate(540.015424, 89.000000)">
                    <g id="Badge-Price" transform="translate(138.984576, 0.000000)">
                        <circle id="Oval" fill="#D62C64" fill-rule="nonzero" cx="14.5" cy="14.5" r="14.5"></circle>
                        <path d="M6.99169927,20.0769231 L6.99169927,19.1386435 C5.2865909,18.991684 4.46153846,17.5560031 4.46153846,17.5560031 L5.48460349,16.7194647 C5.48460349,16.7194647 6.01263705,17.691658 6.99169927,17.8612266 L6.99169927,15.6116164 C5.91363075,15.2046518 4.80256014,14.5715956 4.80256014,13.2037422 C4.80256014,12.1637214 5.62761258,11.1350052 6.99169927,10.9880457 L6.99169927,10.0384615 L7.68474332,10.0384615 L7.68474332,10.9880457 C9.02682862,11.1463098 9.77487617,12.1411123 9.77487617,12.1411123 L8.78481324,12.9889553 C8.78481324,12.9889553 8.37778737,12.4350312 7.68474332,12.2767672 L7.68474332,14.4924636 C7.71774542,14.5150728 7.76174822,14.5263773 7.80575101,14.5376819 C8.98282583,14.9898649 9.97288875,15.5211798 9.97288875,16.9455561 C9.97288875,18.2455821 8.94982373,19.0029886 7.68474332,19.1273389 L7.68474332,20.0769231 L6.99169927,20.0769231 Z M8.63080345,16.9455561 C8.63080345,16.4029366 8.28978178,16.1316268 7.68474332,15.8716216 L7.68474332,17.849922 C8.19077548,17.7594854 8.63080345,17.4655665 8.63080345,16.9455561 Z M6.14464544,13.2037422 C6.14464544,13.6898389 6.44166431,13.9498441 6.99169927,14.2098493 L6.99169927,12.2767672 C6.48566711,12.3898129 6.14464544,12.7628638 6.14464544,13.2037422 Z M10.7136025,17.2959979 L14.6298514,11.1010915 L16.1039451,11.1010915 L16.1039451,16.0298857 L16.9509989,16.0298857 L16.9509989,17.2959979 L16.1039451,17.2959979 L16.1039451,19.0142931 L14.7838612,19.0142931 L14.7838612,17.2959979 L10.7136025,17.2959979 Z M12.8697395,16.0298857 L14.8058626,16.0298857 L14.8058626,12.9663462 L12.8697395,16.0298857 Z M19.4958273,18.6299376 L20.9039168,16.2898909 C20.9039168,16.2898909 20.7609077,16.3238046 20.6399,16.3238046 C19.0557993,16.3238046 18.0327343,14.9898649 18.0327343,13.6446206 C18.0327343,12.2993763 19.0778007,10.9654366 20.7279056,10.9654366 C22.3780105,10.9654366 23.4230769,12.2993763 23.4230769,13.6220114 C23.4230769,14.3002859 23.1810615,14.8768191 22.983049,15.2611746 C22.8620413,15.4872661 20.5958972,19.3308212 20.5958972,19.3308212 L19.4958273,18.6299376 Z M20.7279056,15.0576923 C21.4869539,15.0576923 22.0919923,14.5037682 22.0919923,13.6446206 C22.0919923,12.785473 21.4869539,12.2315489 20.7279056,12.2315489 C19.9688574,12.2315489 19.3638189,12.785473 19.3638189,13.6446206 C19.3638189,14.5037682 19.9688574,15.0576923 20.7279056,15.0576923 Z" id="$49" fill="#FFFFFF"></path>
                    </g>
                </g>
            </g>
        </g>
    </g>
</svg>